<svg xmlns="http://www.w3.org/2000/svg" viewBox="0 0 67.12 46.56"><defs><style>.cls-1{fill:#d0b49e;}.cls-2{fill:none;stroke:#d0b49e;stroke-miterlimit:10;stroke-width:2.63px;}</style></defs><title>icon-1_1</title><g id="Layer_2" data-name="Layer 2"><g id="Layer_1-2" data-name="Layer 1"><path class="cls-1" d="M43.53,25.15a10,10,0,1,1-10-10A10,10,0,0,1,43.53,25.15Z"/><path class="cls-2" d="M65.81,10.66v28a6.55,6.55,0,0,1-6.55,6.55H7.86A6.54,6.54,0,0,1,1.32,38.7v-28A6.54,6.54,0,0,1,7.86,4.12H9.22A1,1,0,0,0,10,3.7l1-1.55a1.82,1.82,0,0,1,1.55-.83h3.61a1.84,1.84,0,0,1,1.55.83l1,1.55a1,1,0,0,0,.79.42H59.26A6.54,6.54,0,0,1,65.81,10.66Z"/><path class="cls-2" d="M48.05,25.15A14.49,14.49,0,1,0,33.56,39.64,14.49,14.49,0,0,0,48.05,25.15Z"/><rect class="cls-1" x="50.85" y="8.79" width="10.28" height="6.54" rx="1.87"/></g></g></svg>